<svg width="24" height="24" viewBox="0 0 24 24" fill="none" xmlns="http://www.w3.org/2000/svg">
<path d="M5.06248 4.60874L4.60873 5.06249C4.25623 5.41499 4.25623 5.98499 4.60873 6.33374L5.69998 7.42874L7.42873 5.69999L6.33747 4.60874C5.98497 4.25624 5.41498 4.25624 5.06623 4.60874H5.06248ZM13.7325 12.0075L8.69998 6.97124L6.97122 8.69999L12.0075 13.7325C12.1162 13.8412 12.2512 13.92 12.3975 13.9612L14.5912 14.5875L13.965 12.3937C13.9237 12.2475 13.845 12.1125 13.7362 12.0037L13.7325 12.0075ZM7.60872 3.33749L15.0075 10.7325C15.3337 11.0587 15.57 11.46 15.6937 11.8987L16.7662 15.6487C16.8562 15.9637 16.77 16.3012 16.5375 16.5337C16.305 16.7662 15.9675 16.8525 15.6525 16.7625L11.9025 15.69C11.46 15.5625 11.0587 15.3262 10.7362 15.0037L3.33747 7.60874C2.28373 6.55499 2.28373 4.84499 3.33747 3.79124L3.79122 3.33749C4.84497 2.28374 6.55497 2.28374 7.60872 3.33749ZM18.3 4.79999C20.1225 4.79999 21.6 6.27749 21.6 8.09999V18.3C21.6 20.1225 20.1225 21.6 18.3 21.6H8.09997C6.27748 21.6 4.79997 20.1225 4.79997 18.3V14.1C4.79997 13.6012 5.20123 13.2 5.69998 13.2C6.19872 13.2 6.59997 13.6012 6.59997 14.1V18.3C6.59997 19.1287 7.27122 19.8 8.09997 19.8H18.3C19.1287 19.8 19.8 19.1287 19.8 18.3V8.09999C19.8 7.27124 19.1287 6.59999 18.3 6.59999H14.1C13.6012 6.59999 13.2 6.19874 13.2 5.69999C13.2 5.20124 13.6012 4.79999 14.1 4.79999H18.3Z" fill="white"/>
</svg>
